<svg xmlns="http://www.w3.org/2000/svg" style="display:none">
  <!-- stroke 1.75, currentColor -->
  <symbol id="i-cart" viewBox="0 0 24 24" fill="none" stroke="currentColor" stroke-width="1.75" stroke-linecap="round" stroke-linejoin="round">
    <circle cx="9" cy="20" r="1.4"/><circle cx="18" cy="20" r="1.4"/>
    <path d="M2 3h2.2l1.6 11.3a1.5 1.5 0 0 0 1.5 1.3h8.9a1.5 1.5 0 0 0 1.5-1.2L20 7H5"/>
  </symbol>
  <symbol id="i-ticket" viewBox="0 0 24 24" fill="none" stroke="currentColor" stroke-width="1.75" stroke-linecap="round" stroke-linejoin="round">
    <path d="M3 8a2 2 0 0 1 2-2h14a2 2 0 0 1 2 2v2a2 2 0 0 0 0 4v2a2 2 0 0 1-2 2H5a2 2 0 0 1-2-2v-2a2 2 0 0 0 0-4Z"/>
    <path d="M14 6v12" stroke-dasharray="2 2.5"/>
  </symbol>
  <symbol id="i-user" viewBox="0 0 24 24" fill="none" stroke="currentColor" stroke-width="1.75" stroke-linecap="round" stroke-linejoin="round">
    <circle cx="12" cy="8" r="4"/><path d="M4 20c0-3.5 3.6-6 8-6s8 2.5 8 6"/>
  </symbol>
  <symbol id="i-search" viewBox="0 0 24 24" fill="none" stroke="currentColor" stroke-width="1.75" stroke-linecap="round" stroke-linejoin="round">
    <circle cx="11" cy="11" r="7"/><path d="m21 21-4.3-4.3"/>
  </symbol>
  <symbol id="i-globe" viewBox="0 0 24 24" fill="none" stroke="currentColor" stroke-width="1.75" stroke-linecap="round" stroke-linejoin="round">
    <circle cx="12" cy="12" r="9"/><path d="M3 12h18M12 3a15 15 0 0 1 0 18M12 3a15 15 0 0 0 0 18"/>
  </symbol>
  <symbol id="i-menu" viewBox="0 0 24 24" fill="none" stroke="currentColor" stroke-width="1.75" stroke-linecap="round"><path d="M4 7h16M4 12h16M4 17h16"/></symbol>
  <symbol id="i-close" viewBox="0 0 24 24" fill="none" stroke="currentColor" stroke-width="1.75" stroke-linecap="round"><path d="M6 6l12 12M18 6 6 18"/></symbol>
  <symbol id="i-chevron-down" viewBox="0 0 24 24" fill="none" stroke="currentColor" stroke-width="1.75" stroke-linecap="round" stroke-linejoin="round"><path d="m6 9 6 6 6-6"/></symbol>
  <symbol id="i-chevron-right" viewBox="0 0 24 24" fill="none" stroke="currentColor" stroke-width="1.75" stroke-linecap="round" stroke-linejoin="round"><path d="m9 6 6 6-6 6"/></symbol>
  <symbol id="i-arrow-right" viewBox="0 0 24 24" fill="none" stroke="currentColor" stroke-width="1.75" stroke-linecap="round" stroke-linejoin="round"><path d="M4 12h16M14 6l6 6-6 6"/></symbol>
  <symbol id="i-arrow-left" viewBox="0 0 24 24" fill="none" stroke="currentColor" stroke-width="1.75" stroke-linecap="round" stroke-linejoin="round"><path d="M20 12H4M10 6l-6 6 6 6"/></symbol>
  <symbol id="i-play" viewBox="0 0 24 24" fill="currentColor"><path d="M8 5.5v13a1 1 0 0 0 1.5.87l11-6.5a1 1 0 0 0 0-1.74l-11-6.5A1 1 0 0 0 8 5.5Z"/></symbol>
  <symbol id="i-gallery" viewBox="0 0 24 24" fill="none" stroke="currentColor" stroke-width="1.75" stroke-linecap="round" stroke-linejoin="round">
    <rect x="3" y="5" width="18" height="14" rx="2"/><circle cx="8.5" cy="10" r="1.4"/><path d="m4 17 4.5-4 3 2.6L15 12l5 5"/></symbol>
  <symbol id="i-video" viewBox="0 0 24 24" fill="none" stroke="currentColor" stroke-width="1.75" stroke-linecap="round" stroke-linejoin="round">
    <rect x="3" y="6" width="13" height="12" rx="2"/><path d="m16 10 5-3v10l-5-3"/></symbol>
  <symbol id="i-calendar" viewBox="0 0 24 24" fill="none" stroke="currentColor" stroke-width="1.75" stroke-linecap="round" stroke-linejoin="round">
    <rect x="3" y="5" width="18" height="16" rx="2"/><path d="M3 9h18M8 3v4M16 3v4"/></symbol>
  <symbol id="i-pin" viewBox="0 0 24 24" fill="none" stroke="currentColor" stroke-width="1.75" stroke-linecap="round" stroke-linejoin="round">
    <path d="M12 21c4-4 7-7.5 7-11a7 7 0 1 0-14 0c0 3.5 3 7 7 11Z"/><circle cx="12" cy="10" r="2.5"/></symbol>
  <symbol id="i-clock" viewBox="0 0 24 24" fill="none" stroke="currentColor" stroke-width="1.75" stroke-linecap="round" stroke-linejoin="round">
    <circle cx="12" cy="12" r="9"/><path d="M12 7v5l3.5 2"/></symbol>
  <symbol id="i-share" viewBox="0 0 24 24" fill="none" stroke="currentColor" stroke-width="1.75" stroke-linecap="round" stroke-linejoin="round">
    <circle cx="18" cy="5" r="3"/><circle cx="6" cy="12" r="3"/><circle cx="18" cy="19" r="3"/><path d="m8.6 10.5 6.8-4M8.6 13.5l6.8 4"/></symbol>
  <symbol id="i-shield" viewBox="0 0 24 24" fill="none" stroke="currentColor" stroke-width="1.75" stroke-linecap="round" stroke-linejoin="round">
    <path d="M12 3 5 6v6c0 4 3 7 7 9 4-2 7-5 7-9V6Z"/></symbol>
  <!-- redes -->
  <symbol id="i-instagram" viewBox="0 0 24 24" fill="none" stroke="currentColor" stroke-width="1.75" stroke-linecap="round" stroke-linejoin="round">
    <rect x="3" y="3" width="18" height="18" rx="5"/><circle cx="12" cy="12" r="4"/><circle cx="17.5" cy="6.5" r="1" fill="currentColor" stroke="none"/></symbol>
  <symbol id="i-x" viewBox="0 0 24 24" fill="currentColor"><path d="M17.5 3h3l-7.1 8.1L22 21h-6.4l-4.4-5.8L6 21H3l7.6-8.7L2.5 3H9l4 5.3L17.5 3Zm-1.1 16h1.7L7.7 4.8H5.9L16.4 19Z"/></symbol>
  <symbol id="i-youtube" viewBox="0 0 24 24" fill="none" stroke="currentColor" stroke-width="1.75" stroke-linecap="round" stroke-linejoin="round">
    <rect x="2.5" y="6" width="19" height="12" rx="3.5"/><path d="M10 9.2v5.6l5-2.8z" fill="currentColor" stroke="none"/></symbol>
  <symbol id="i-tiktok" viewBox="0 0 24 24" fill="currentColor"><path d="M16 3c.3 2.3 1.7 3.9 4 4.2v3c-1.5.1-2.9-.3-4-1v6.4A6.1 6.1 0 1 1 9.9 9.5v3.1a3 3 0 1 0 3 3V3Z"/></symbol>
  <symbol id="i-facebook" viewBox="0 0 24 24" fill="currentColor"><path d="M14 8.5V6.8c0-.8.5-1 .9-1H17V2.5h-2.6C11.3 2.5 11 4.9 11 6.3v2.2H8.5v3.3H11V21h3v-9.2h2.4l.4-3.3H14Z"/></symbol>
</svg>
